<svg class="img-fluid" id="outputsvg" xmlns="http://www.w3.org/2000/svg" style="transform: matrix(1.3, 0, 0, 1.3, 0, 0); transform-origin: 50% 50%; cursor: move; transition: transform 200ms ease-in-out 0s;" width="120" height="120" viewBox="0 0 1200 1200"><g id="led6HDXxLpKB3rJBInqSAJ" fill="rgb(253,174,179)" style="transform: none; transform-origin: 50% 50%;"><g style="transform: none;"><path id="ppWkGCoaW" d="M143 1036 l-28 -24 -6 -169 -7 -168 52 -49 c28 -26 100 -90 159 -142 100 -87 111 -94 151 -94 39 0 50 6 127 74 72 64 86 72 101 62 9 -7 91 -78 182 -159 129 -115 171 -147 193 -147 l28 0 -5 396 -5 396 -28 24 -28 24 -429 0 -429 0 -28 -24z"></path></g></g><g id="l1PReg5IXY9KUxbReAvzebZ" fill="rgb(239,68,82)" style="transform: none; transform-origin: 50% 50%;"><g style="transform: none;"><path id="pRauFKI19" d="M100 649 l0 -73 48 -45 c137 -132 293 -261 314 -261 13 0 37 12 54 28 117 102 143 122 161 122 19 0 37 -15 241 -193 109 -94 139 -106 167 -64 8 13 13 35 11 48 -3 13 -5 27 -5 32 -1 4 -6 7 -11 7 -6 0 -84 65 -173 144 -210 187 -213 189 -240 182 -12 -3 -60 -40 -106 -81 -46 -41 -90 -75 -97 -75 -12 0 -87 62 -255 210 -119 106 -109 104 -109 19z"></path></g></g></svg>