<?xml version="1.0" encoding="iso-8859-1"?>
<!-- Generator: Adobe Illustrator 19.0.0, SVG Export Plug-In . SVG Version: 6.00 Build 0)  -->
<svg version="1.1" id="Layer_1" xmlns="http://www.w3.org/2000/svg" xmlns:xlink="http://www.w3.org/1999/xlink" x="0px" y="0px"
	 viewBox="0 0 457.503 457.503" style="enable-background:new 0 0 457.503 457.503;" xml:space="preserve">
<g>
	<g>
		<path d="M381.575,57.067h-90.231C288.404,25.111,261.461,0,228.752,0C196.043,0,169.1,25.111,166.16,57.067H75.929
			c-26.667,0-48.362,21.695-48.362,48.362c0,26.018,20.655,47.292,46.427,48.313v246.694c0,31.467,25.6,57.067,57.067,57.067
			h195.381c31.467,0,57.067-25.6,57.067-57.067V153.741c25.772-1.02,46.427-22.294,46.427-48.313
			C429.936,78.761,408.242,57.067,381.575,57.067z M165.841,376.817c0,8.013-6.496,14.509-14.508,14.509
			c-8.013,0-14.508-6.496-14.508-14.509V186.113c0-8.013,6.496-14.508,14.508-14.508c8.013,0,14.508,6.496,14.508,14.508V376.817z
			 M243.26,376.817c0,8.013-6.496,14.509-14.508,14.509c-8.013,0-14.508-6.496-14.508-14.509V186.113
			c0-8.013,6.496-14.508,14.508-14.508c8.013,0,14.508,6.496,14.508,14.508V376.817z M320.679,376.817
			c0,8.013-6.496,14.509-14.508,14.509c-8.013,0-14.509-6.496-14.509-14.509V186.113c0-8.013,6.496-14.508,14.509-14.508
			s14.508,6.496,14.508,14.508V376.817z"/>
	</g>
</g>
<g>
</g>
<g>
</g>
<g>
</g>
<g>
</g>
<g>
</g>
<g>
</g>
<g>
</g>
<g>
</g>
<g>
</g>
<g>
</g>
<g>
</g>
<g>
</g>
<g>
</g>
<g>
</g>
<g>
</g>
</svg>
