<svg version="1.1" id="Capa_1" xmlns="http://www.w3.org/2000/svg" xmlns:xlink="http://www.w3.org/1999/xlink" x="0px" y="0px"
            width="35px" height="35px" viewBox="0 0 381.404 381.404" style="enable-background:new 0 0 35 35;"
            xml:space="preserve">
            <g>
               <path d="M34.249,246.497l63.655,25.155V5.1c0-2.818,2.29-5.094,5.103-5.1h51.022c2.811,0.006,5.096,2.282,5.096,5.094v266.559
                  l63.658-25.155c2.134-0.824,4.569-0.147,5.943,1.675c1.39,1.839,1.378,4.36-0.022,6.178l-96.136,125.057
                  c-0.971,1.261-2.466,1.994-4.053,1.998c-1.573,0-3.074-0.737-4.041-1.998L28.333,254.35c-0.705-0.92-1.058-2.019-1.053-3.106
                  c0-1.063,0.336-2.157,1.021-3.082C29.682,246.35,32.115,245.66,34.249,246.497z M354.125,244.402h-21.907l-12.364-29.736h-37.228
                  l-12.027,29.736h-21.407l41.452-99.561h21.861L354.125,244.402z M314.653,200.095l-9.91-23.779
                  c-1.412-3.374-2.571-6.58-3.599-9.677c-1.144,3.429-2.266,6.528-3.405,9.476l-9.948,23.974h26.862V200.095z M340.509,267.006
                  h-83.718V282.3h56.287l-61.786,73.763v10.518h90.071v-15.289h-62.305l61.438-73.472v-10.813H340.509z"/>
            </g>
         </svg>