<svg version="1.1" id="Capa_2" xmlns="http://www.w3.org/2000/svg" xmlns:xlink="http://www.w3.org/1999/xlink" x="0px" y="0px"
            width="35px" height="35px" viewBox="0 0 96.55 96.55" style="enable-background:new 0 0 35 35;" xml:space="preserve"
            >
            <g>
               <g>
                  <path d="M73.901,56.376h-26.76c-0.652,0-1.182,0.526-1.182,1.181v14.065c0,0.651,0.529,1.18,1.182,1.18h26.76
                     c0.654,0,1.184-0.526,1.184-1.18V57.555C75.084,56.902,74.555,56.376,73.901,56.376z"/>
                  <path d="M62.262,80.001H47.141c-0.652,0-1.182,0.528-1.182,1.183v14.063c0,0.653,0.529,1.182,1.182,1.182h15.122
                     c0.652,0,1.182-0.526,1.182-1.182V81.182C63.444,80.529,62.916,80.001,62.262,80.001z"/>
                  <path d="M84.122,28.251h-36.98c-0.652,0-1.182,0.527-1.182,1.18v14.063c0,0.652,0.529,1.182,1.182,1.182h36.98
                     c0.651,0,1.181-0.529,1.181-1.182V29.43C85.301,28.778,84.773,28.251,84.122,28.251z"/>
                  <path d="M94.338,0.122H47.141c-0.652,0-1.182,0.529-1.182,1.182v14.063c0,0.654,0.529,1.182,1.182,1.182h47.198
                     c0.652,0,1.181-0.527,1.181-1.182V1.303C95.519,0.651,94.992,0.122,94.338,0.122z"/>
                  <path d="M39.183,65.595h-8.011V2c0-1.105-0.896-2-2-2h-16.13c-1.104,0-2,0.895-2,2v63.595h-8.01c-0.771,0-1.472,0.443-1.804,1.138
                     C0.895,67.427,0.99,68.25,1.472,68.85l18.076,26.954c0.38,0.474,0.953,0.746,1.559,0.746s1.178-0.272,1.558-0.746L40.741,68.85
                     c0.482-0.601,0.578-1.423,0.245-2.117C40.654,66.039,39.954,65.595,39.183,65.595z"/>
               </g>
            </g>
         </svg>