<?xml version="1.0" encoding="iso-8859-1"?>
<!-- Generator: Adobe Illustrator 19.0.0, SVG Export Plug-In . SVG Version: 6.00 Build 0)  -->
<svg version="1.1" id="Layer_1" xmlns="http://www.w3.org/2000/svg" xmlns:xlink="http://www.w3.org/1999/xlink" x="0px" y="0px"
	 viewBox="0 0 330 330" style="enable-background:new 0 0 330 330;" xml:space="preserve">
<g id="XMLID_516_">
	<path id="XMLID_517_" d="M15,160c8.284,0,15-6.716,15-15V85c0-30.327,24.673-55,55-55c30.327,0,55,24.673,55,55v45h-25
		c-8.284,0-15,6.716-15,15v170c0,8.284,6.716,15,15,15h200c8.284,0,15-6.716,15-15V145c0-8.284-6.716-15-15-15H170V85
		c0-46.869-38.131-85-85-85S0,38.131,0,85v60C0,153.284,6.716,160,15,160z"/>
</g>
<g>
</g>
<g>
</g>
<g>
</g>
<g>
</g>
<g>
</g>
<g>
</g>
<g>
</g>
<g>
</g>
<g>
</g>
<g>
</g>
<g>
</g>
<g>
</g>
<g>
</g>
<g>
</g>
<g>
</g>
</svg>
